<svg height="512pt" viewBox="-53 0 512 512.001" width="512pt" xmlns="http://www.w3.org/2000/svg"><path d="m303.273438 366.1875-5.273438-29.539062c19.785156-3.535157 46.960938-19.390626 59.347656-34.621094 11.675782-14.363282 23.082032-37.371094 16.796875-54.953125-2.335937-6.535157-7.867187-11.484375-14.09375-12.609375-13.453125-2.429688-29.074219 3.472656-37.144531 14.035156l-23.847656-18.21875c14.988281-19.617188 41.644531-29.804688 66.324218-25.347656 16.863282 3.046875 31.046876 15.324218 37.023438 32.042968 10.46875 29.300782-4.382812 62.59375-21.773438 83.980469-16.757812 20.609375-50.734374 40.476563-77.359374 45.230469zm0 0" fill="#ff4f19"/><path d="m327.386719 176.613281v123.824219c0 84.945312-69.101563 154.046875-154.046875 154.046875-.007813 0-.007813 0-.019532 0-84.933593-.011719-154.023437-69.109375-154.023437-154.046875v-123.824219zm0 0" fill="#ffaa20"/><path d="m125.601562 122.472656-25.199218-16.292968-.082032.121093c.324219-.519531 7.804688-12.875.71875-22.222656-15.8125-20.875-7.863281-45.429687-.671874-56.648437l25.265624 16.195312.074219-.121094c-.324219.527344-7.859375 13.066406-.746093 22.453125 15.835937 20.902344 7.851562 45.359375.640624 56.515625zm0 0" fill="#dfcdbd"/><path d="m182.894531 122.46875-9.574219-6.183594-15.625-10.101562c.980469-1.632813 12.144532-20.585938.640626-35.792969-24.527344-32.371094-1.660157-68.851563-.671876-70.390625l15.65625 10.03125 9.601563 6.164062c-.988281 1.640626-12.203125 20.84375-.667969 36.078126 24.546875 32.414062 1.628906 68.671874.640625 70.195312zm0 0" fill="#dfcdbd"/><path d="m246.28125 122.464844-25.199219-16.292969-.082031.125c.324219-.523437 7.804688-12.875.71875-22.226563-15.8125-20.875-7.859375-45.429687-.671875-56.644531l25.265625 16.191407.078125-.121094c-.324219.527344-7.859375 13.066406-.75 22.453125 15.835937 20.902343 7.851563 45.359375.640625 56.515625zm0 0" fill="#c8ad92"/><path d="m182.894531 122.46875-9.574219-6.183594v-106.25l9.601563 6.160156c-.988281 1.640626-12.203125 20.847657-.667969 36.082032 24.546875 32.410156 1.628906 68.667968.640625 70.191406zm0 0" fill="#c8ad92"/><path d="m327.386719 176.613281v123.824219c0 84.945312-69.101563 154.046875-154.046875 154.046875-.007813 0-.007813 0-.019532 0v-277.871094zm0 0" fill="#ff8900"/><path d="m346.679688 432.648438v39.191406l-20.644532 40.160156h-305.386718l-20.648438-40.160156v-39.191406zm0 0" fill="#dfcdbd"/><path d="m346.679688 432.648438v39.191406l-20.644532 40.160156h-152.714844v-79.351562zm0 0" fill="#c8ad92"/></svg>